# xmcd CD database file
#
# Track frame offsets:
#	182
#	28402
#	61370
#	93255
#	123432
#	149312
#	173065
#
# Disc length: 2631 seconds
#
# Revision: 1
# Processed by: cddbd v1.5.1PL0 Copyright (c) Steve Scherf et al.
# Submitted via: CDex 1.51
#
DISCID=5e0a4507
DTITLE=Wallace Roney - The Standard Bearer
DYEAR=1989
DGENRE=Jazz
TTITLE0=The way you look tonight
TTITLE1=I didn't know what time it was
TTITLE2=Don't blame me
TTITLE3=Con alma
TTITLE4=Giant steps
TTITLE5=When your lover has gone
TTITLE6=Loose
EXTD=YEAR: 1989
EXTT0=
EXTT1=
EXTT2=
EXTT3=
EXTT4=
EXTT5=
EXTT6=
PLAYORDER=
